<?xml version="1.0" encoding="UTF-8"?>
<svg id="background" xmlns="http://www.w3.org/2000/svg" viewBox="0 0 397 83.2">
  <defs>
    <style>
      .cls-1 {
        fill: #b31f2d;
      }

      .cls-2 {
        fill: #fbf6f2;
      }

      .cls-3 {
        fill: #f9d2e1;
      }
    </style>
  </defs>
  <path class="cls-3" d="M15.86,23.44c2.2.42,4.23,1.16,6.14,2.1,1.09.54,2.13,1.14,3.15,1.8,3.78,2.45,7.15,5.61,10.6,8.58,2.76,2.38,5.86,4.82,9.53,5.55,5.49,1.08,10.91-1.61,15.58-4.17,8.01-4.38,15.75-9.59,25.2-9.97.04,0,.07,0,.11,0,.51-.02,1.01-.01,1.51,0,6.44.25,11.96,3.53,16.34,8.24,2.94,3.16,5.38,8.57,9.27,10.67,5.14,2.79,13.46-3.52,18.04-5.49,7.51-3.23,15.52-5.81,23.81-5.07,8.57.77,15.51,4.79,22.55,9.39,6.54,4.28,12.73,7.38,19.36,1.64,5.07-4.39,8.96-10.03,15.22-12.89,7.6-3.47,15.62-1.66,23.02,1.4,7.94,3.29,16.12,8.22,25.06,7.15,7.59-.91,13.14-6.29,19.53-9.89,6.58-3.71,13.6-5.25,21.1-4.08,9.06,1.41,17.31,5.94,26.34,7.52,10.73,1.88,19.35-4.4,28.53-8.59,5.12-2.34,10.42-4.03,16.35-3.29,3.56.44,6.63,1.65,9.43,3.29.12.07.25.14.38.22.34.2.67.41,1,.63,5.05,3.31,9.26,7.96,14,11.84V0H0v25.09c5.07-1.85,10.45-2.68,15.86-1.65Z"/>
  <path class="cls-2" d="M385.01,42.23c-.66-.6-1.33-1.2-2.01-1.77-.33-.28-.67-.56-1-.83-5.09-4.15-10.58-7.05-17.61-4.97-8.1,2.39-14.86,8.04-23,10.45-9.38,2.78-18.85.36-27.84-2.64-7.81-2.61-16.07-6.28-24.3-3.37-6.89,2.43-12.23,7.9-18.94,10.76-7.02,2.99-14.49,3.27-21.85,1.36-8.17-2.12-15.33-7.26-23.6-8.97-8.45-1.75-12.99,3.94-18.39,9.31-2.19,2.18-4.54,4.19-7.12,5.73-3.05,1.82-6.43,2.98-10.25,2.93-3.74-.05-7.18-1.25-10.44-2.93-3.21-1.65-6.24-3.75-9.2-5.67-7.63-4.94-15.48-7.33-24.48-5.11-8.18,2.02-15.14,6.79-23.07,9.32-4.97,1.59-10.29,1.42-14.67-1.6-4.16-2.88-6.59-7.48-9.92-11.17-5.43-6.02-11.44-6.79-18.91-3.83-8.04,3.19-14.78,9.04-23.22,11.4-7.22,2.02-14.56.96-20.81-3.18-4.44-2.94-8.08-7.14-12.38-10.31-1.22-.9-2.48-1.72-3.83-2.4-6.04-3.04-12.42-1.6-18.17,1.23v47.24h397v-31.25c-4.32-2.74-8.11-6.19-11.99-9.71Z"/>
  <path class="cls-1" d="M199.34,57.28h-20.69c3.26,1.67,6.7,2.87,10.44,2.93,3.82.05,7.19-1.1,10.25-2.93Z"/>
  <path class="cls-1" d="M383,28.19c-.33-.22-.66-.43-1-.63-.12-.07-.25-.15-.38-.22-2.8-1.64-5.87-2.85-9.43-3.29-5.94-.74-11.23.95-16.35,3.29-9.19,4.19-17.8,10.47-28.53,8.59-9.02-1.58-17.28-6.11-26.34-7.52-7.5-1.17-14.52.37-21.1,4.08-6.39,3.6-11.94,8.98-19.53,9.89-8.94,1.07-17.12-3.86-25.06-7.15-7.4-3.07-15.42-4.88-23.02-1.4-6.26,2.86-10.15,8.5-15.22,12.89-6.63,5.74-12.82,2.64-19.36-1.64-7.04-4.61-13.98-8.63-22.55-9.39-8.29-.74-16.29,1.84-23.81,5.07-4.58,1.97-12.9,8.28-18.04,5.49-3.89-2.11-6.33-7.51-9.27-10.67-4.38-4.71-9.9-7.99-16.34-8.24-.5-.02-1-.03-1.51,0-.04,0-.07,0-.11,0-9.44.37-17.18,5.58-25.2,9.97-4.67,2.56-10.1,5.25-15.58,4.17-3.67-.72-6.77-3.17-9.53-5.55-3.45-2.98-6.82-6.14-10.6-8.58-1.02-.66-2.07-1.26-3.15-1.8-1.91-.95-3.94-1.68-6.14-2.1-5.4-1.03-10.79-.2-15.86,1.65v10.87c5.75-2.83,12.13-4.27,18.17-1.23,1.35.68,2.62,1.5,3.83,2.4,4.29,3.17,7.94,7.37,12.38,10.31,6.25,4.14,13.59,5.2,20.81,3.18,8.44-2.36,15.17-8.22,23.22-11.4,7.47-2.96,13.47-2.18,18.91,3.83,3.33,3.69,5.76,8.29,9.92,11.17,4.38,3.03,9.69,3.19,14.67,1.6,7.94-2.53,14.9-7.31,23.07-9.32,9-2.22,16.85.17,24.48,5.11,2.96,1.92,5.99,4.02,9.2,5.67h20.69c2.58-1.54,4.93-3.55,7.12-5.73,5.4-5.38,9.94-11.06,18.39-9.31,8.27,1.71,15.43,6.85,23.6,8.97,7.36,1.91,14.83,1.63,21.85-1.36,6.72-2.86,12.05-8.33,18.94-10.76,8.23-2.91,16.49.76,24.3,3.37,8.99,3.01,18.46,5.43,27.84,2.64,8.14-2.41,14.9-8.06,23-10.45,7.03-2.07,12.52.82,17.61,4.97.33.27.67.55,1,.83.67.58,1.34,1.17,2.01,1.77,3.88,3.53,7.68,6.98,11.99,9.71v-11.92c-4.74-3.87-8.95-8.52-14-11.84Z"/>
</svg>